# xmcd
#
# Track frame offsets:
#	150
#	14164
#	33561
#	45085
#	57081
#	70396
#	85847
#	101868
#	114000
#
# Disc length: 1710 seconds
#
# Revision: 0
# Processed by: cddbd v1.5.1PL0 Copyright (c) Steve Scherf et al.
# Submitted via: dBpowerAMP V4.0
#
DISCID=6e06ac09
DTITLE=Matt King - Don't Tread On Me
DYEAR=2003
DGENRE=Country
TTITLE0=Shanty Town
TTITLE1=Alafair
TTITLE2=Quicksilver
TTITLE3=Circling The Drain
TTITLE4=Bring Me Some Water
TTITLE5=The Same River Twice
TTITLE6=Sacred
TTITLE7=Life Down Here
TTITLE8=Napolean
EXTD=
EXTT0=
EXTT1=
EXTT2=
EXTT3=
EXTT4=
EXTT5=
EXTT6=
EXTT7=
EXTT8=
PLAYORDER=
